<svg xmlns="http://www.w3.org/2000/svg" clip-rule="evenodd" fill-rule="evenodd" height="896.56" image-rendering="optimizeQuality" shape-rendering="geometricPrecision" text-rendering="geometricPrecision" viewBox="0 0 981.4 896.56" width="981.4"><g><path d="M485.99 469.33c-14.87,0 -26.92,-12.05 -26.92,-26.92 0,-14.87 12.05,-26.92 26.92,-26.92 14.87,0 26.92,12.05 26.92,26.92 0,14.87 -12.05,26.92 -26.92,26.92zm372.82 -342.15c-0.05,-0.03 -0.09,-0.06 -0.14,-0.09 -0.04,17.32 2.52,35.62 7.69,54.9 46.92,39.29 75.14,89.38 75.14,143.61 0,61.58 -36.39,117.83 -95.23,158.98 -28.93,20.23 -63.2,36.79 -101.25,48.61 -11.74,-60.05 -51.11,-113.5 -108.71,-153.79 -67.37,-47.12 -160.01,-76.26 -261.97,-76.26 -35.06,0 -69.01,3.45 -101.22,9.88 4.58,-56.64 39.91,-108.07 94.71,-146.4 60.9,-42.59 145.45,-68.93 239.22,-68.93 27.88,0 54.95,2.33 80.82,6.72 1.58,-1.14 3.17,-2.27 4.77,-3.38 14.56,-10.14 29.68,-18.95 45.34,-26.44 0.73,-0.35 1.46,-0.7 2.2,-1.04 3.98,-1.93 8.11,-3.76 12.41,-5.49 40.4,-16.85 84.32,-25.26 131.76,-25.23 -15.38,22.45 -23.85,47.5 -25.41,75.15 -0.13,3.04 -0.17,6.11 -0.13,9.2zm-736.23 642.2c0.05,0.03 0.09,0.06 0.14,0.09 0.04,-17.32 -2.52,-35.62 -7.69,-54.9 -46.92,-39.29 -75.14,-89.38 -75.14,-143.61 0,-61.58 36.39,-117.83 95.23,-158.98 28.93,-20.23 63.2,-36.8 101.25,-48.61 11.74,60.05 51.11,113.5 108.71,153.79 67.37,47.12 160.01,76.26 261.97,76.26 35.06,0 69.01,-3.45 101.22,-9.88 -4.58,56.64 -39.91,108.07 -94.71,146.4 -60.9,42.59 -145.45,68.93 -239.22,68.93 -27.88,0 -54.95,-2.33 -80.82,-6.72 -1.58,1.14 -3.17,2.27 -4.77,3.38 -14.56,10.14 -29.68,18.95 -45.34,26.44 -0.73,0.35 -1.46,0.7 -2.2,1.04 -3.98,1.93 -8.11,3.76 -12.41,5.49 -40.4,16.85 -84.32,25.26 -131.76,25.23 15.38,-22.45 23.85,-47.5 25.41,-75.15 0.13,-3.04 0.17,-6.11 0.13,-9.2zm279.95 -353.9c14.87,0 26.92,12.05 26.92,26.92 0,14.87 -12.05,26.92 -26.92,26.92 -14.87,0 -26.92,-12.05 -26.92,-26.92 0,-14.87 12.05,-26.92 26.92,-26.92zm166.92 53.84c-14.87,0 -26.92,-12.05 -26.92,-26.92 0,-14.87 12.05,-26.92 26.92,-26.92 14.87,0 26.92,12.05 26.92,26.92 0,14.87 -12.05,26.92 -26.92,26.92zm-270.93 363.94c24.5,3.6 49.86,5.49 75.83,5.49 101.96,0 194.6,-29.14 261.97,-76.26 68.6,-47.98 111.34,-114.64 112.35,-188.86 45.26,-13.2 86.09,-32.51 120.37,-56.49 69.43,-48.56 112.37,-116.24 112.37,-191.55 0,-62.15 -29.25,-119.1 -78.49,-164.4 -0.05,-0.31 -0.11,-0.62 -0.17,-0.93 -5.39,-25.15 -5.81,-48.04 0.88,-68.51 6.59,-20.15 20.42,-38.74 43.67,-55.82 8.86,-6.5 10.78,-18.95 4.29,-27.82 -4.27,-5.82 -11.11,-8.65 -17.81,-8.06 -61.82,2.68 -111.61,7.74 -152.36,17.48 -41.05,9.81 -72.99,24.33 -98.52,45.73 -24.5,-3.6 -49.86,-5.49 -75.83,-5.49 -101.96,0 -194.6,29.14 -261.97,76.26 -68.6,47.98 -111.34,114.64 -112.35,188.86 -45.26,13.2 -86.09,32.51 -120.37,56.49 -69.43,48.56 -112.37,116.24 -112.37,191.55 0,62.15 29.25,119.1 78.49,164.4 0.05,0.31 0.11,0.62 0.17,0.93 5.39,25.15 5.81,48.04 -0.88,68.51 -6.59,20.15 -20.42,38.74 -43.67,55.82 -8.86,6.5 -10.78,18.95 -4.29,27.82 4.27,5.82 11.11,8.65 17.81,8.06 61.82,-2.68 111.61,-7.74 152.36,-17.48 41.05,-9.81 72.99,-24.33 98.52,-45.73z" fill="#244254"/></g></svg>